<svg width="173" height="173" viewBox="0 0 173 173" fill="none" xmlns="http://www.w3.org/2000/svg">
<path fill-rule="evenodd" clip-rule="evenodd" d="M86.5 25.125C52.6035 25.125 25.125 52.6035 25.125 86.5C25.125 120.396 52.6035 147.875 86.5 147.875C120.396 147.875 147.875 120.396 147.875 86.5C147.875 52.6035 120.396 25.125 86.5 25.125ZM18.125 86.5C18.125 48.7375 48.7375 18.125 86.5 18.125C124.262 18.125 154.875 48.7375 154.875 86.5C154.875 124.262 124.262 154.875 86.5 154.875C48.7375 154.875 18.125 124.262 18.125 86.5ZM110.6 69.6085C111.967 70.9753 111.967 73.1914 110.6 74.5582L81.7665 103.392C80.3997 104.758 78.1836 104.758 76.8168 103.392L62.4001 88.9749C61.0333 87.608 61.0333 85.392 62.4001 84.0251C63.767 82.6583 65.983 82.6583 67.3499 84.0251L79.2917 95.9669L105.65 69.6085C107.017 68.2416 109.233 68.2416 110.6 69.6085Z" fill="white"/>
</svg>
